<?xml version="1.0" encoding="UTF-8" standalone="no"?>
<!DOCTYPE svg PUBLIC "-//W3C//DTD SVG 1.1//EN" "http://www.w3.org/Graphics/SVG/1.1/DTD/svg11.dtd">
<svg width="100%" height="100%" viewBox="0 0 1024 1024" version="1.1" xmlns="http://www.w3.org/2000/svg" xmlns:xlink="http://www.w3.org/1999/xlink" xml:space="preserve" xmlns:serif="http://www.serif.com/" style="fill-rule:evenodd;clip-rule:evenodd;">
    <g id="Water" transform="matrix(1.5067,0,0,1.5067,-53.8122,79.7541)">
        <g transform="matrix(1,0,0,1,7,0)">
            <path d="M263,469L268.726,468.5L277.247,468.406L284.855,468.316L290.331,468.701L297.041,469.681L302.3,470.985L309.004,473.035L318.946,475.604L327.614,477.761L337.213,479.77L344.834,481.489L350.9,482.737L357.689,484.183L362.994,485.159L367.81,486.073L371.556,486.574L377.331,487.377L383.138,487.627L389.812,487.287L395.036,486.798L400.499,486.066L405.609,485.002L402.992,487.804L400.499,489.445L397.402,491.108L393.023,492.682L387.004,494.019L379.632,495.305L373,496L365.247,496.105L355.485,495.4L345.811,494.354L337.441,492.848L329,491L323,490L308,487L302,486L295,485L287.778,484.18L279.855,484.008L274.015,484.199L267.796,484.581L262.289,485.55L257,487L251.393,489.168L245.807,491.995L240.867,495.213L236.224,498.78L234.16,499.667L231.818,499.553L227.533,497.253L222.368,494.464L216.866,491.539L211.77,489.285L207.654,487.701L205,487L202.02,486.391L198.595,486.295L194.683,486.484L190.044,487.181L185,488L178.839,489.044L173.473,489.742L168.072,490.424L161.896,490.997L155.302,491.288L147.796,490.846L141.806,489.796L135.899,488.04L130.795,485.787L127.409,483.382L125,481L130.012,481.815L136.338,482.15L143.467,481.883L149.584,481.601L155,481L161,480L167.982,478.237L177.006,476.327L184.094,474.517L189.875,473.035L197,472L200.757,471.986L206.97,472.53L214,474L219.799,476.429L225,479L230,482L232.254,482.724L234.43,482.407L236.603,480.98L240.231,478.294L244,476L248.148,473.946L251.616,472.434L255.004,470.985L259.127,469.704L263,469Z" style="fill:none;stroke:black;stroke-width:1px;"/>
        </g>
        <g transform="matrix(1,0,0,1,7,0)">
            <path d="M479,493L486.999,492.693L495.22,492.967L502.128,493.636L508.08,494.546L517.4,495.635L530.974,496.757L537.362,497.343L542.865,497.792L547.983,497.837L553.423,497.211L550.6,499.25L546.867,500.718L543.083,501.858L538.681,502.967L534,504L529,505L523,506L514,507L497.372,507.824L484.303,508.074L474.175,507.939L463.212,506.91L455.298,505.552L450.01,504.296L445.437,503.225L440.896,501.978L436.645,500.345L434.276,499.091L433,498L437.928,497.826L442.022,497.436L446.704,496.833L451,496L456.96,495.082L463.602,494.361L471.476,493.72L479,493Z" style="fill:none;stroke:black;stroke-width:1px;"/>
        </g>
        <g transform="matrix(1,0,0,1,7,0)">
            <path d="M261,509L269.009,508.856L277.574,509.003L286,510L294,511L302.983,512.728L309,514L319,516L325,517L334.277,518.743L342.301,519.52L351.836,519.887L360.121,519.659L366.804,519.315L375.023,518.995L383.008,518.484L390.249,518.307L399,518L401.914,517.786L399.068,519.895L395.036,521.799L390.927,523.21L387.004,524.412L381,526L371,528L364,529L356,530L347.653,530.666L337.166,530.774L323,530L314,529L308,528L303,527L291,525L284,524L276.914,523.202L269.624,522.735L263.157,522.807L256.111,523.35L249.546,524.209L241.813,524.681L232.673,524.482L223.853,523.978L215,523L208.098,522.226L200,521L195,520L190.027,518.835L186.478,517.789L182.949,516.238L180.144,514.414L189.823,514.62L198.56,514.647L203.004,514.692L206.97,514.679L213.327,514.334L220.395,514.01L228.475,513.427L237.376,512.213L244.537,510.747L252.799,509.442L261,509Z" style="fill:none;stroke:black;stroke-width:1px;"/>
        </g>
    </g>
    <g id="Wilds" transform="matrix(1.5067,0,0,1.5067,-53.8122,79.7541)">
        <g id="Mountains">
            <g transform="matrix(1,0,0,1,7,0)">
                <path d="M263,185L263.465,181L265.155,174.1L268,167L272,158L271.947,156.511L270.768,155.755L269,156L263.684,157.849L255.159,162.054L247.412,167.061L238.561,173.009L232.531,177.663L222.305,186.071L215.196,191.964L208.38,198.069L200.531,205.681L192.358,214.011L184.38,221.802L179.621,225.988L177,228L180.615,218.239L185.948,208L192.856,196.761L200.137,186.797L206.97,177.953L213.468,170.77L216.692,166.705L216.201,164.569L206.97,158.458L205.011,158.631L164.026,198.073L145.302,197.824L205.011,142.032L206.97,142.032L224.458,152.53L226.39,152.511L302.983,73.999L305.002,73.999L366.44,135.043L349,135L305.002,89.975L302.983,89.975L246,151L252.515,148.228L257,146L262,143L269.314,138.326L277.793,132.872L285.932,126.331L295.134,118.172L305.002,108.975L305.002,156.012L301.587,155.148L296.716,153.27L292,151L290.272,150.958L289,152L284.923,160.198L279.855,168.552L273.643,176.007L267.974,181.325L263,185Z" style="fill:none;stroke:black;stroke-width:1px;"/>
            </g>
            <g transform="matrix(1,0,0,1,7,0)">
                <path d="M451.329,175.014L452.993,179.533L455.1,183.318L458.025,188.136L462.389,193.809L468.963,201.118L475.341,207.388L481.454,213.084L489.983,219.326L493.737,221.576L498.254,224.057L503.007,225.988L497.336,218.491L492.61,211.144L489.983,205.949L488,201L488.71,199.477L493.31,196.675L500.703,193.115L506.837,190.592L512,189L514.013,189.329L519.507,194.198L525.826,199.722L532.013,204.763L538.184,208.623L541,210L544,211L542.937,207.429L541.476,203.702L539.333,199.115L537,195L534,190L531.722,186.411L528,181L528,169L528.444,162.299L528.606,160.212L528.513,157.739L482.458,186.558L530.974,140.053L533.037,140.03L595,206L597.277,206.072L604.057,199.707L604.024,197.262L533,123L531,123L469,181L465.432,180.965L461.486,179.796L458.025,177.936L454.815,175.888L450.917,173.009L451.329,175.014Z" style="fill:none;stroke:black;stroke-width:1px;"/>
            </g>
        </g>
        <g id="Trees">
            <g transform="matrix(1,0,0,1,7,0)">
                <path d="M637.982,169.139L640.117,168.476L642.065,169.213L642.804,170.829L643.078,174.885L644,181L645,185L647,191L649.13,196.322L651,200L654.552,205.395L658,210L662,215L668,222L670.755,225.469L670.923,227.121L670,229L668.481,230.004L666.588,230L663,229L657,227L655,226L653.067,224.988L650.483,223.693L647.854,222.625L649,228L650.083,230.98L652,235L653.79,238.246L655.503,240.621L658,244.323L660,247L662.692,249.963L666.405,253.779L670.351,257.478L673,260L676.946,263.273L679.935,265.523L682.851,267.762L684.368,269.911L684.358,271.932L683,273L677.467,273L673,272L670,271L666.515,269.814L663.247,268.538L659,267L656.102,265.332L653.787,263.691L651.893,263.026L651.263,264.554L652.004,266.729L653.466,269.51L655.397,273L657.263,276.348L659.548,280.112L662.296,284.135L665.156,288.028L670,293L676.447,298.428L681,302L686.005,305.312L689.56,307.538L692.823,309.565L694,311L694.095,313.327L693.646,314.905L692,316L687.992,315.894L684,315L676,313L670,311L666.147,309.519L662.512,308.027L658,306.159L656,305L655,305L654,306L654,307L656.286,312.098L660.147,317.473L663.813,322.234L667.302,326.434L671.643,331.145L677.798,336.554L683.532,341.171L689.445,345.2L696.747,349.392L699.468,351.535L701.056,353.292L701.711,355.036L700.955,356.573L699.028,357.652L695.731,358.308L690,358L685.226,357.127L680.104,355.79L674.926,354.428L670,353L662,350L655.941,347.078L651.51,344.4L648.943,342.152L647.132,342.311L646,344L646,374L645,375L633,375L632,374L631.966,346.014L631.966,343.533L630.976,342.009L628.984,341.498L625.552,343.479L620.974,346.014L616.829,347.862L612.709,349.322L608,351L604.113,352.198L602.016,352.032L601.291,350.97L599.63,337.93L600.329,336.573L602.836,334.778L605.295,332.68L607.701,330.12L611.568,326.042L615.768,321.169L619.167,316.45L621,313L623,309L623,308L622,307L621,307L617.007,308.544L613,310L607.899,311.692L603.679,313L600.108,314.042L596.394,314.928L593.349,315.55L591.355,315.33L589,314L588,313L587.847,309.894L589.522,307.909L592.366,305.954L596.508,302.877L600,300L606.019,295.045L611.591,289.689L615.723,284.888L618.566,280.858L620.533,277.883L622.505,274.39L624.313,271.179L626.306,267.43L627,265L626.893,263.651L625.364,263.014L623,264L619.728,265.543L616.682,266.851L614,268L610.83,269.409L607.078,270.706L602.943,271.971L599,272L597,271L596,270L595.815,267.757L597,266L599,265L601.359,263.752L603.69,261.908L607.551,258.344L611.117,255.043L614.494,251.11L619.298,245.771L622,242L624,239L626.157,235.51L627.956,232.077L629.882,227.834L631,224L631.065,221.355L629.195,222.377L627.077,223.63L624.445,224.988L621.782,226.717L618.054,228.58L613.722,229.5L610.761,229.943L608.809,230.173L607.805,229.824L607,229L606.628,227.233L607.397,224.988L608.653,223.692L611.039,221.128L615.862,216.063L620.025,211.241L623,207L625.148,203.5L627,200L629,196L630.702,192.336L632,189L635,180L636,175L636.591,170.978L637.982,169.139Z" style="fill:none;stroke:black;stroke-width:1px;"/>
            </g>
            <g transform="matrix(1,0,0,1,7,0)">
                <path d="M141.067,260.694L144.407,261.035L148.713,260.838L150.005,259.82L150,258L149,257L145.017,254.311L139.874,249.958L133.305,243.914L126.817,236.998L122.41,231.005L118.916,225.988L115.212,219.919L113.19,214.956L112,211.14L112,209L113,208L114.24,208L116.549,209.696L120.088,211.805L124.338,213.309L130,215L134,215L135.386,213.275L135.399,210.873L134.381,209.53L128.543,204.483L123.497,198.358L119.316,192.446L116.269,186.865L113,180L109.575,171.39L107.263,164.592L106.026,159.143L105.465,155.595L103.638,154.019L101.459,154.087L99.57,155.921L98.894,159.321L97.851,165.624L95.928,172.365L93.268,180.02L90.185,186.225L86.336,192.756L81.722,199.006L76.64,204.516L70.683,210.508L70.534,213.119L71.898,214.819L74.671,214.866L79.284,214.011L83.361,212.316L86.355,210.89L90.532,208.967L93,209L94,210L94,211L93.051,214.011L90.604,219.293L86.573,226.641L81.406,233.743L75,241L70.305,245.794L65.781,249.958L60.598,253.961L56.587,256.958L56,259L57.163,260.115L59.246,260.876L63.099,260.643L67.275,260.098L73.086,258.941L77.835,257.557L82.857,255.333L85.497,254L87,254L87.974,254.85L87.829,256.284L86.082,259.671L82.137,266.37L77.537,273L74.347,277.073L71,281L66.29,285.491L57.947,292.799L49.652,298.359L45,301L44.532,303.097L45.418,304.847L48.518,306.166L53.904,305.623L60.782,303.985L68.013,301.85L73.852,299.91L79.058,297.798L83.085,295.887L85.54,294.901L86.99,295.019L87.743,296.93L86.152,299.776L82.799,304.713L77.82,311.017L70.407,320.168L65.602,324.911L59.43,330.041L52.653,334.46L44.817,339.634L37.993,343.338L35.57,345.342L35.352,348.039L37.431,349.649L41,350L44.101,349.966L47.824,349.7L56.136,348.498L66.39,346.014L76.141,343.338L84.144,340.469L89.452,338.069L93.757,335.958L95,336L96,337L96,393L95,394L89,395L85,396L79.108,399L73.964,402.987L69.46,407.616L66.409,412.569L65.123,417.033L150,417L145.508,412.196L140.545,407.519L134.51,402.458L128.375,399L121.659,396.514L116.668,394.74L111,394L110,393L110,336L111,335L112,335L116.456,338.218L122.177,341.492L127.526,344.24L131.789,346.014L133.883,346.795L135.086,346.014L135.912,343.338L135.758,320.714L130.802,317.061L126.331,312.426L122.587,308.048L119.334,303.097L116.905,298.448L116.778,296.803L118,296L119.736,296.916L121.88,297.938L125.904,300.136L131.073,302.288L135.343,303.688L139.303,304.71L142,305L149,297L149,296L140.733,288.745L133.196,280.465L128.022,273.972L123.363,266.913L119.606,259.821L118,256L118,255L119,254L120,254L121.555,254.503L123.277,255.532L126.016,256.958L129.963,258.224L136.213,259.711L141.067,260.694Z" style="fill:none;stroke:black;stroke-width:1px;"/>
            </g>
        </g>
    </g>
    <g id="Boat" transform="matrix(1.5067,0,0,1.5067,-53.8122,79.7541)">
        <g id="Boat1" serif:id="Boat">
            <g transform="matrix(1,0,0,1,7,0)">
                <path d="M183.27,280.169L186.717,299.607L179.533,306.224L171.505,314.02L166.567,320.06L163.211,324.492L162.185,328L162.431,332.633L165,340L169.785,351.708L175.46,364.791L182,379L187.208,389.227L191.644,398.198L201.081,419.036L206.797,432.542L213.64,449.515L206.615,438.003L201.868,429.867L195,418L192,413L184,399L177,387L171,377L165.44,368.217L160,359L152.895,346.393L149,338L147,332L146.705,325.979L147.508,320.443L149.521,316.332L152.752,311.964L156.428,307.419L163.283,300.482L177.699,285.357L183.27,280.169Z" style="fill:none;stroke:black;stroke-width:1px;"/>
            </g>
            <g transform="matrix(1,0,0,1,7,0)">
                <path d="M191.357,278.81L197.691,279.355L205.696,280.134L216.025,281.342L233.333,283.614L247,286L259,288L284,293L298,296L311,299L327,303L355,311L372.256,316.548L381,320L387,327L396.039,336.977L404.928,347.025L412.961,355.082L414.961,356.515L419.988,358.379L426.581,360.148L434,362L458,368L467,370L478,372L491.354,374.377L507.922,376.987L518.601,378.53L530.568,379.851L545.957,380.969L545.957,397.049L534.728,396.025L522.789,394.887L513.774,393.837L499.313,391.549L485,389L467,386L456,384L446,382L432,379L414.961,374.551L408.288,372.23L404,370L401.367,368.082L380,347L367,334L357.405,331.053L348.325,328.108L338,325L331,323L323.902,321.158L315,319L307,317L298,315L288,313L279,311L269,309L252,306L240,304L233,303L223.186,301.595L211.476,300.157L202.667,299.161L194.437,298.39L191.357,278.81Z" style="fill:none;stroke:black;stroke-width:1px;"/>
            </g>
            <g transform="matrix(1,0,0,1,7,0)">
                <path d="M545.957,419.036L545.957,438.003L528.009,438.003L528.009,456.017L509.027,456.017L509.027,470.985L489.983,470.985L489.983,456.017L468.963,456.017L469,471L428,471L416.357,470.199L405.144,469.127L378.273,466L354,461.801L338.661,458.004L316,452L308,450L299,448L292,447L279.855,445.864L270,446L262,447L257,448L250,450L242,453L234.601,456.017L231.418,447.004L228,438L219,411L215,397L213,389L210.734,380.969L208.225,370.592L206.117,361.998L203.557,350.865L200.824,336.878L198.721,325.529L197.236,317.282L195.957,309.65L203.049,310.366L214.819,311.809L221.591,312.616L228.483,313.355L234,314L248,316L272,320L277.736,321L283,322L288.568,323.031L293.766,324.083L298,325L302,326L306.409,327.004L310,328L326,332L329.725,333L333.048,333.956L336.097,334.862L340,336L343,337L346.616,338.065L350,339L362,343L375,356L386,368L393.023,375.119L398.76,379.122L402.992,380.969L412.961,384.592L425.998,387.948L450,393L463.387,395.487L474.48,397.37C474.48,397.37 481.084,398.433 485.149,399C496.354,400.564 510.582,402.219 510.582,402.219L521.733,403.42L527.975,404.302L528.009,419.036L545.957,419.036Z" style="fill:none;stroke:black;stroke-width:1px;"/>
            </g>
            <g transform="matrix(1,0,0,1,7,0)">
                <path d="M387.004,224.988L462.76,258.941L478.009,358.985L474.9,358.755L470,358L466.157,357.167L462.03,356.173L457.721,355.054L453.901,354.014L450,353L442.631,351.111L436.546,349.364L430.958,347.684L425.998,346.359L421.523,345.058L418.297,342.768L411.478,336.16L403,327L388,311L379.179,307.732L368.303,303.954L356.286,300.039L350,298L343,296L332,293L316,289L306.961,287.031L297.973,285.827L298,237L387.004,224.988Z" style="fill:none;stroke:black;stroke-width:1px;"/>
            </g>
            <path d="M419.961,208L483.601,239.623L485.009,242.018C485.009,242.018 485.009,251.858 485.009,251.081C485.009,251.858 482.791,252.503 482.791,252.503L394.004,210.201L288.991,227.955L286.855,225.988L286.855,215.991L289,214L394.004,194.578L402.121,198.775M402.036,198.732L402.036,176.991L400.023,175.014L384,175L382,173L382.023,161.13L432.998,161.13L432.998,173.009L431.125,175.014L422,175.014L419.961,176.991L419.961,208" style="fill:none;stroke:black;stroke-width:1px;"/>
        </g>
        <g id="Flag">
            <g transform="matrix(1,0,0,1,7,0)">
                <path d="M402.992,42.992L404,43.985L404,152L403,153L396,153L395,152L395.036,43.985L396.039,42.992L402.992,42.992Z" style="fill:none;stroke:black;stroke-width:1px;"/>
            </g>
            <g transform="matrix(1,0,0,1,7,0)">
                <path d="M412.961,56.03L479.978,56.03L464,82L480.024,108.014L412.961,108.014L412.961,56.03Z" style="fill:none;stroke:black;stroke-width:1px;"/>
            </g>
            <g transform="matrix(1,0,0,1,7,0)">
                <path d="M451.723,81.992L426.03,98.008L426,90.013L439.593,82.009L426.045,73.94L426.021,65.984L451.723,81.992Z" style="fill:none;stroke:black;stroke-width:1px;"/>
            </g>
        </g>
    </g>
    <g id="Windows" transform="matrix(1.5067,0,0,1.5067,-53.8122,79.7541)">
        <g transform="matrix(1,0,0,1,7,0)">
            <path d="M387.004,242.011L420.631,258.941L425.998,303.097L387,292L387.004,242.011Z" style="fill:none;stroke:black;stroke-width:1px;"/>
        </g>
        <g transform="matrix(1,0,0,1,7,0)">
            <path d="M432.083,262.037L452,270L458.025,314.02L435.124,305.573L432.083,262.037Z" style="fill:none;stroke:black;stroke-width:1px;"/>
        </g>
        <g transform="matrix(1,0,0,1,7,0)">
            <path d="M375.023,240.025L375.023,287.031L309,278L309.004,249.958L375.023,240.025Z" style="fill:none;stroke:black;stroke-width:1px;"/>
        </g>
    </g>
    <g id="Skull" transform="matrix(1.5067,0,0,1.5067,-53.8122,79.7541)">
        <g transform="matrix(1,0,0,1,7,0)">
            <path d="M301.334,340.579L304.124,342.201L306.98,344.161L310.06,347.246L312.22,350.706L313.765,353.931L314.678,357.178L314.927,361.998L315,378L313.58,379.607L311.44,380.969L307.759,380.969L305.261,381.923L304,384L304.013,395.08L302.774,397.049L301,398L299.109,397.983L297.279,397.049L296,395L296,388L295,387L294,388L294,395L293,396L286.816,396.036L285.991,395.116L286,388L285,387L284,388L284,395.048L283.063,397.049L281.15,398.039L278.96,397.995L277.172,397.049L276.196,395.048L276,384L275.531,382.187L273.976,380.969L268.711,380.969L266.852,379.843L265,377.907L265,360L266,356L268.133,350.999L270.819,347.091L273.493,344.121L276.104,342.23L279.872,340.612L283.82,339.417L288.035,339.011L292.55,339.006L296.416,339.372L301.334,340.579Z" style="fill:none;stroke:black;stroke-width:1px;"/>
        </g>
        <g transform="matrix(1,0,0,1,7,0)">
            <path d="M257.9,387.452L260.196,387.771L261.774,388.488L262.899,389.826L262.862,391.602L262.818,393.379L263.549,395.048L265,396L288,405L291,405L315,394.319L315.874,392.283L315.78,389.975L316.906,388.154L319.527,387.27L322.251,387.761L323.912,389.534L323.677,391.617L322.194,393.293L321.861,394.696L322.434,395.94L323.971,396.529L325.945,396.354L327.199,397.435L327.73,399.023L327.141,401.228L325.931,402.617L323.28,403.221L320.925,402.07L318,403L303.928,408.907L303.127,409.554L303.146,410.725L304.017,411.408L317,416L318.573,415.438L320.401,414.156L323.432,414.347L325,416L325,419L324.12,420.649L322.132,421.779L321,424L321,426L321.888,427.46L321.814,428.71L321,430L319.244,431.02L316,431L314,429L314.072,426.658L313,425L291.097,415.87L288,415.891L265.757,424.985L264.555,427.031L264.546,429.122L263.558,430.547L261.388,431.395L259.108,430.603L258.015,428.699L258,425L257.163,423.401L254.809,422.235L253.522,420.203L254,417L255.964,415.147L258.847,415.26L260.978,417.122L263.457,417.105L275.189,411.894L276,411L276,410L275,409L261,403L259.28,403.148L257.388,404.023L255.288,403.769L254.144,402.639L253.273,400.951L253.598,398.534L254.731,397.191L256.232,396.601L257.039,395.331L256.503,394.019L255.007,392.648L254.718,390.325L255.731,388.499L257.9,387.452Z" style="fill:none;stroke:black;stroke-width:1px;"/>
        </g>
        <g id="Nose" transform="matrix(1,0,0,1,7,0)">
            <path d="M290.436,373.769L291.249,376L292.419,379.131L293,380.969L293,382L292,383L289,383L288,382L288,381L288.761,378.968L289.778,376L290.436,373.769Z" style="fill:none;stroke:black;stroke-width:1px;"/>
        </g>
        <g transform="matrix(1,0,0,1,7,0)">
            <path d="M300.306,363.019L302.376,363.217L304.456,364.773L305.907,367.127L306,369L305.818,371.517L304.432,373.769L302.877,375.472L301,376L298,375L296,374L293.763,372.103L292.009,370L293.651,368.001L295.23,366.26L297.445,364.438L300.306,363.019Z" style="fill:none;stroke:black;stroke-width:1px;"/>
        </g>
        <g transform="matrix(1,0,0,1,7,0)">
            <path d="M276.056,363.713L278.05,363.019L279.986,363.019L282.417,363.732L284.565,365.397L286.505,367.277L288.818,369.973L287.336,371.806L285.405,373.515L283.635,374.582L281.806,375.419L279.528,376L277,375L275,373L274,370L274,367L274.607,365.257L276.056,363.713Z" style="fill:none;stroke:black;stroke-width:1px;"/>
        </g>
    </g>
    <g id="Internal-Cubes" serif:id="Internal Cubes" transform="matrix(1.5067,0,0,1.5067,-53.8122,79.7541)">
        <g transform="matrix(1,0,0,1,7,0)">
            <rect x="412.961" y="399" width="19.122" height="20.036" style="fill:none;stroke:black;stroke-width:1px;"/>
        </g>
        <g transform="matrix(1,0,0,1,7,0)">
            <path d="M469,419L468.963,438.003L450.01,438.003L450.01,419.036L469,419Z" style="fill:none;stroke:black;stroke-width:1px;"/>
        </g>
        <g transform="matrix(1,0,0,1,7,0)">
            <rect x="489.983" y="419.036" width="19.044" height="18.967" style="fill:none;stroke:black;stroke-width:1px;"/>
        </g>
    </g>
    <g id="External-Cubes" serif:id="External Cubes" transform="matrix(1.5067,0,0,1.5067,-53.8122,79.7541)">
        <g transform="matrix(1,0,0,1,7,-2.58919)">
            <rect x="509.027" y="291.99" width="18.983" height="19.027" style="fill:none;stroke:black;stroke-width:1px;"/>
        </g>
        <g transform="matrix(1,0,0,1,7,-2.58919)">
            <rect x="545.957" y="291.99" width="19.023" height="19.027" style="fill:none;stroke:black;stroke-width:1px;"/>
        </g>
        <g transform="matrix(1,0,0,1,7,0)">
            <path d="M584.035,380.969L564.98,380.969L564.98,361.998L584.035,361.998L584.035,380.969" style="fill:none;stroke:black;stroke-width:1px;"/>
        </g>
        <g transform="matrix(1,0,0,1,7,0)">
            <path d="M584.035,380.969L602.016,380.969L602.016,399L584.035,399.023L584.035,380.969" style="fill:none;stroke:black;stroke-width:1px;"/>
        </g>
        <g transform="matrix(1,0,0,1,7,0)">
            <path d="M564.98,456.017L565,438L584.035,438.003L584.035,456.017L564.98,456.017" style="fill:none;stroke:black;stroke-width:1px;"/>
        </g>
        <g transform="matrix(1,0,0,1,7,0)">
            <path d="M564.98,456.017L564.98,473.035L545.957,473.035L546,456L564.98,456.017" style="fill:none;stroke:black;stroke-width:1px;"/>
        </g>
        <g transform="matrix(1,0,0,1,7,-2.58919)">
            <rect x="489.983" y="327.004" width="19.044" height="19.01" style="fill:none;stroke:black;stroke-width:1px;"/>
        </g>
        <g transform="matrix(1,0,0,1,7,-2.58919)">
            <rect x="564.98" y="327.004" width="19.056" height="19.01" style="fill:none;stroke:black;stroke-width:1px;"/>
        </g>
        <g transform="matrix(1,0,0,1,7,0)">
            <rect x="528.009" y="343.338" width="17.947" height="18.661" style="fill:none;stroke:black;stroke-width:1px;"/>
        </g>
        <g transform="matrix(1,0,0,1,7,0)">
            <path d="M638,399L658,399L658.302,419.036L637.982,419.036L638,399Z" style="fill:none;stroke:black;stroke-width:1px;"/>
        </g>
        <g transform="matrix(1,0,0,1,7,0)">
            <rect x="602.016" y="419.036" width="18.958" height="18.967" style="fill:none;stroke:black;stroke-width:1px;"/>
        </g>
        <g transform="matrix(1,0,0,1,7,0)">
            <rect x="602.016" y="419.036" width="18.958" height="18.967" style="fill:none;stroke:black;stroke-width:1px;"/>
        </g>
        <g transform="matrix(1,0,0,1,7,0)">
            <path d="M545.957,419.036L546,399L564.98,399.023L564.98,419.036L545.957,419.036Z" style="fill:none;fill-rule:nonzero;stroke:black;stroke-width:1px;"/>
        </g>
    </g>
</svg>
